<svg width="20" height="20" viewBox="0 0 20 20" fill="none" xmlns="http://www.w3.org/2000/svg">
<g id="arrow-down-to-line">
<path id="arrow-down-to-line_2" d="M5.24422 10.5895C4.91839 10.2637 4.91839 9.73697 5.24422 9.41113C5.57006 9.0853 6.09677 9.0853 6.42261 9.41113L9.16675 12.1553V2.50033C9.16675 2.04033 9.53925 1.66699 10.0001 1.66699C10.4609 1.66699 10.8334 2.04033 10.8334 2.50033V12.1553L13.5776 9.41113C13.9034 9.0853 14.4301 9.0853 14.7559 9.41113C15.0818 9.73697 15.0818 10.2637 14.7559 10.5895L10.5901 14.7554C10.5126 14.8329 10.421 14.8937 10.3185 14.9362C10.2168 14.9787 10.1084 15.0003 10.0001 15.0003C9.89175 15.0003 9.78335 14.9779 9.68168 14.9362C9.57918 14.8937 9.48757 14.8329 9.41007 14.7554L5.24422 10.5895ZM15.0001 16.667H5.00008C4.53925 16.667 4.16675 17.0403 4.16675 17.5003C4.16675 17.9603 4.53925 18.3337 5.00008 18.3337H15.0001C15.4609 18.3337 15.8334 17.9603 15.8334 17.5003C15.8334 17.0403 15.4609 16.667 15.0001 16.667Z" fill="white"/>
</g>
</svg>
