<svg width="26" height="26" viewBox="0 0 26 26" fill="none" xmlns="http://www.w3.org/2000/svg">
<g id="bell">
<path id="bell_2" d="M14.164 21.751C14.253 21.906 14.252 22.098 14.162 22.252C13.706 23.033 12.898 23.5 12 23.5C11.102 23.5 10.294 23.033 9.83799 22.252C9.74799 22.098 9.74699 21.906 9.83599 21.751C9.92499 21.596 10.09 21.5 10.27 21.5H13.73C13.909 21.5 14.074 21.596 14.164 21.751ZM20.391 19.688C20.372 19.665 18.495 17.282 18.495 14.5V10.995C18.495 7.414 15.581 4.5 12 4.5C8.41899 4.5 5.50499 7.414 5.50499 10.995V14.5C5.50499 17.281 3.62899 19.664 3.60899 19.688C3.48899 19.838 3.46599 20.044 3.54899 20.217C3.63199 20.39 3.80699 20.5 3.99899 20.5H19.999C20.191 20.5 20.366 20.39 20.449 20.217C20.534 20.043 20.51 19.838 20.391 19.688Z" fill="white"/>
<circle id="Ellipse 1203" cx="19" cy="7" r="6" fill="#FF1515" stroke="#0D1116" stroke-width="2"/>
</g>
</svg>
