<svg width="24" height="24" viewBox="0 0 24 24" fill="none" xmlns="http://www.w3.org/2000/svg">
<g id="delivery-cart-arrow-down">
<path id="delivery-cart-arrow-down_2" d="M21.738 16.6499C21.81 17.0579 21.538 17.4469 21.13 17.5189L10.46 19.3969C10.268 20.5859 9.24301 21.4999 8.00001 21.4999C6.62101 21.4999 5.50001 20.3779 5.50001 18.9999C5.50001 17.8829 6.24106 16.9459 7.25306 16.6259L5.17103 4.7799C5.05203 4.1029 4.39903 3.65191 3.71803 3.76791L3.12404 3.86891C2.72404 3.93591 2.32802 3.66291 2.26002 3.25491C2.19102 2.84591 2.46504 2.4589 2.87404 2.3899L3.464 2.2899C4.946 2.0309 6.38496 3.0299 6.64796 4.5189L8.77699 16.6349C9.42099 16.8469 9.94698 17.3089 10.241 17.9109L20.87 16.0399C21.279 15.9689 21.667 16.2419 21.738 16.6499ZM9.57203 9.0879C9.20903 7.0289 10.0071 5.8889 12.0661 5.5259L15.7 4.8849C17.759 4.5219 18.899 5.3199 19.262 7.3789L19.903 11.0129C20.266 13.0719 19.4681 14.2119 17.4091 14.5749L13.775 15.2159C11.716 15.5789 10.576 14.7809 10.213 12.7219L9.57203 9.0879ZM12.914 11.4169L14.643 12.6349C14.676 12.6579 14.7131 12.6699 14.7481 12.6869C14.7771 12.7009 14.803 12.7189 14.834 12.7289C14.909 12.7549 14.986 12.7689 15.064 12.7699C15.067 12.7699 15.07 12.7719 15.074 12.7719C15.117 12.7719 15.161 12.7679 15.205 12.7599C15.252 12.7509 15.29 12.7259 15.333 12.7089C15.37 12.6949 15.4061 12.6869 15.4411 12.6669C15.5341 12.6139 15.615 12.5469 15.677 12.4629C15.68 12.4589 15.685 12.4579 15.688 12.4529L16.9151 10.7139C17.1531 10.3749 17.072 9.90691 16.734 9.66891C16.393 9.42991 15.927 9.51091 15.688 9.84991L15.5 10.1169L15.1181 7.9519C15.0471 7.5449 14.659 7.2719 14.25 7.3439C13.842 7.4159 13.569 7.8049 13.642 8.2129L14.021 10.3599L13.78 10.1899C13.438 9.95091 12.973 10.0329 12.734 10.3709C12.495 10.7099 12.576 11.1779 12.914 11.4169Z" fill="#B8B8B8"/>
</g>
</svg>
