<svg width="24" height="24" viewBox="0 0 24 24" fill="none" xmlns="http://www.w3.org/2000/svg">
<g id="delivery-cart-arrow-down">
<path id="delivery-cart-arrow-down_2" d="M21.7377 16.6499C21.8097 17.0579 21.5377 17.4469 21.1297 17.5189L10.4596 19.3969C10.2676 20.5859 9.24265 21.4999 7.99965 21.4999C6.62065 21.4999 5.49965 20.3779 5.49965 18.9999C5.49965 17.8829 6.2407 16.9459 7.2527 16.6259L5.17067 4.7799C5.05167 4.1029 4.39866 3.65191 3.71766 3.76791L3.12367 3.86891C2.72367 3.93591 2.32766 3.66291 2.25966 3.25491C2.19066 2.84591 2.46467 2.4589 2.87367 2.3899L3.46363 2.2899C4.94563 2.0309 6.38459 3.0299 6.64759 4.5189L8.77662 16.6349C9.42062 16.8469 9.94661 17.3089 10.2406 17.9109L20.8696 16.0399C21.2786 15.9689 21.6667 16.2419 21.7377 16.6499ZM9.57167 9.0879C9.20867 7.0289 10.0067 5.8889 12.0657 5.5259L15.6996 4.8849C17.7586 4.5219 18.8986 5.3199 19.2616 7.3789L19.9026 11.0129C20.2656 13.0719 19.4677 14.2119 17.4087 14.5749L13.7747 15.2159C11.7157 15.5789 10.5757 14.7809 10.2127 12.7219L9.57167 9.0879ZM12.9136 11.4169L14.6426 12.6349C14.6756 12.6579 14.7127 12.6699 14.7477 12.6869C14.7767 12.7009 14.8026 12.7189 14.8336 12.7289C14.9086 12.7549 14.9856 12.7689 15.0636 12.7699C15.0666 12.7699 15.0696 12.7719 15.0736 12.7719C15.1166 12.7719 15.1606 12.7679 15.2046 12.7599C15.2516 12.7509 15.2897 12.7259 15.3327 12.7089C15.3697 12.6949 15.4057 12.6869 15.4407 12.6669C15.5337 12.6139 15.6146 12.5469 15.6766 12.4629C15.6796 12.4589 15.6846 12.4579 15.6876 12.4529L16.9147 10.7139C17.1527 10.3749 17.0717 9.90691 16.7337 9.66891C16.3927 9.42991 15.9266 9.51091 15.6876 9.84991L15.4996 10.1169L15.1177 7.9519C15.0467 7.5449 14.6586 7.2719 14.2496 7.3439C13.8416 7.4159 13.5686 7.8049 13.6416 8.2129L14.0206 10.3599L13.7797 10.1899C13.4377 9.95091 12.9727 10.0329 12.7337 10.3709C12.4947 10.7099 12.5756 11.1779 12.9136 11.4169Z" fill="white"/>
</g>
</svg>
