<svg width="24" height="24" viewBox="0 0 24 24" fill="none" xmlns="http://www.w3.org/2000/svg">
<g id="envelopes">
<path id="envelopes_2" d="M21 6.67003V14.33C21 15.436 20.6539 16.203 19.9619 16.62C19.8219 16.704 19.5 16.68 19.5 16.345V9.66904C19.5 7.05904 17.9401 5.49902 15.3301 5.49902H5.67212C5.29412 5.49902 5.29992 5.16603 5.38892 5.02203C5.80792 4.34003 6.57192 3.99902 7.66992 3.99902H18.3301C20.1101 4.00002 21 4.89003 21 6.67003ZM18 9.66704V17.334C18 19.112 17.111 20.001 15.333 20.001H4.66602C2.88802 20.001 1.99902 19.112 1.99902 17.334V9.66704C1.99902 7.88904 2.88802 7.00003 4.66602 7.00003H15.333C17.111 7.00003 18 7.88904 18 9.66704ZM15.74 10.292C15.497 9.95804 15.0289 9.88204 14.6919 10.126L10.1069 13.46C10.0429 13.507 9.95709 13.507 9.89209 13.46L5.30688 10.126C4.96988 9.88204 4.50203 9.95804 4.25903 10.292C4.01503 10.627 4.08907 11.096 4.42407 11.34L9.00903 14.674C9.30503 14.89 9.65302 14.997 9.99902 14.997C10.345 14.997 10.693 14.889 10.989 14.674L15.574 11.34C15.91 11.096 15.984 10.627 15.74 10.292Z" fill="#B8B8B8"/>
</g>
</svg>
