<svg width="24" height="24" viewBox="0 0 24 24" fill="none" xmlns="http://www.w3.org/2000/svg">
<g id="leaf">
<path id="leaf_2" d="M15.38 17.9703C12.814 19.8143 9.76597 19.1083 8.02097 18.4333C7.28197 20.0333 7.03299 21.1303 7.02799 21.1553C6.95299 21.5083 6.64096 21.7493 6.29496 21.7493C6.24396 21.7493 6.19199 21.7443 6.13999 21.7333C5.73499 21.6483 5.47595 21.2513 5.56095 20.8463C5.61395 20.5923 6.857 14.9303 12.517 10.0903C10.314 11.1093 7.30198 13.4183 5.78098 16.9503C4.47098 14.3303 4.45095 9.48031 8.69095 7.19031C10.481 6.23031 12.291 6.04028 14.481 5.29028C16.061 4.74028 16.9909 3.64033 17.3709 3.09033C17.4609 2.95033 17.661 2.98031 17.711 3.13031C18.41 5.02031 21.22 13.7703 15.38 17.9703Z" fill="#B8B8B8"/>
</g>
</svg>
