<svg width="24" height="24" viewBox="0 0 24 24" fill="none" xmlns="http://www.w3.org/2000/svg">
<g id="line-chart-dots">
<path id="line-chart-dots_2" d="M23.02 9C23.02 10.104 22.124 11 21.02 11C20.738 11 20.47 10.94 20.226 10.835L16.855 14.2061C16.96 14.4501 17.021 14.717 17.021 15C17.021 16.104 16.125 17 15.021 17C13.917 17 13.016 16.104 13.016 15C13.016 14.727 13.071 14.467 13.17 14.229L9.78697 10.8459C9.55097 10.9439 9.29197 10.999 9.02097 10.999C8.73897 10.999 8.47097 10.939 8.22697 10.834L4.85597 14.2051C4.96097 14.4491 5.02197 14.716 5.02197 14.999C5.02197 16.103 4.12597 16.999 3.02197 16.999C1.91797 16.999 1.01697 16.103 1.01697 14.999C1.01697 13.895 1.90696 12.999 3.01196 12.999H3.02197C3.29397 12.999 3.55196 13.0541 3.78796 13.1521L7.17197 9.76807C7.07297 9.53107 7.01697 9.27102 7.01697 8.99902C7.01697 7.89502 7.90696 6.99902 9.01196 6.99902H9.02197C10.126 6.99902 11.022 7.89502 11.022 8.99902C11.022 9.28102 10.962 9.54897 10.856 9.79297L14.224 13.1609C14.465 13.0569 14.731 12.999 15.011 12.999H15.021C15.293 12.999 15.551 13.0541 15.787 13.1521L19.171 9.76807C19.072 9.53107 19.016 9.27102 19.016 8.99902C19.016 7.89502 19.906 6.99902 21.011 6.99902H21.021C22.125 7.00002 23.02 7.896 23.02 9Z" fill="white"/>
</g>
</svg>
