<svg width="20" height="20" viewBox="0 0 20 20" fill="none" xmlns="http://www.w3.org/2000/svg">
<g id="moon">
<path id="moon_2" d="M10.1108 2.5C10.1133 2.5 10.1167 2.5 10.1192 2.5C10.385 2.5 10.5 2.82751 10.3 3.00001C8.89917 4.20584 8.12919 6.10166 8.52169 8.14499C8.95753 10.4125 10.8234 12.1383 13.1442 12.4483C14.61 12.6442 15.9675 12.2733 17.0467 11.5325C17.2658 11.3817 17.5567 11.5808 17.4909 11.8358C16.5709 15.4325 13.0217 17.9958 8.97251 17.4183C5.60918 16.9383 2.95336 14.2392 2.55502 10.9125C2.34669 9.1775 2.74084 7.54251 3.55834 6.18334C4.88334 3.97834 7.32168 2.5 10.1108 2.5Z" fill="#626262"/>
</g>
</svg>
