<svg width="24" height="24" viewBox="0 0 24 24" fill="none" xmlns="http://www.w3.org/2000/svg">
<g id="papers">
<path id="papers_2" d="M15.261 20.3918C14.917 20.5558 14.5161 20.6779 14.0601 20.7599L7.49004 21.9099C5.30004 22.2999 4.00994 21.3999 3.62994 19.2099L2.09014 10.4599C1.70014 8.26987 2.60009 6.97988 4.79009 6.58988L6.58794 6.27384C6.79294 6.23784 6.97211 6.41686 6.93511 6.62186L5.75909 13.2799C5.22909 16.3099 6.65901 18.3499 9.67901 18.8799C9.67901 18.8799 14.898 19.7969 15.167 19.8489C15.499 19.9088 15.552 20.2628 15.261 20.3918ZM19.209 3.24387L12.6431 2.08585C10.4551 1.69985 9.16706 2.60083 8.78106 4.78983L8.58013 5.92783L7.23711 13.5439C6.85111 15.7329 7.75197 17.0199 9.94097 17.4059L16.5062 18.5639C16.5872 18.5779 16.6572 18.5778 16.7352 18.5888C18.7792 18.8698 19.996 17.9678 20.368 15.8598L21.9122 7.10587C22.2992 4.91787 21.398 3.62987 19.209 3.24387Z" fill="#B8B8B8"/>
</g>
</svg>
