<svg width="21" height="20" viewBox="0 0 21 20" fill="none" xmlns="http://www.w3.org/2000/svg">
<g id="plus">
<path id="plus_2" d="M16.334 9.16634H11.334V4.16634C11.334 3.70634 10.9607 3.33301 10.5007 3.33301C10.0407 3.33301 9.66732 3.70634 9.66732 4.16634V9.16634H4.66732C4.20732 9.16634 3.83398 9.53967 3.83398 9.99967C3.83398 10.4597 4.20732 10.833 4.66732 10.833H9.66732V15.833C9.66732 16.293 10.0407 16.6663 10.5007 16.6663C10.9607 16.6663 11.334 16.293 11.334 15.833V10.833H16.334C16.794 10.833 17.1673 10.4597 17.1673 9.99967C17.1673 9.53967 16.794 9.16634 16.334 9.16634Z" fill="white"/>
</g>
</svg>
