<svg width="21" height="20" viewBox="0 0 21 20" fill="none" xmlns="http://www.w3.org/2000/svg">
<g id="plus">
<path id="plus_2" d="M16.3335 9.16634H11.3335V4.16634C11.3335 3.70634 10.9602 3.33301 10.5002 3.33301C10.0402 3.33301 9.66683 3.70634 9.66683 4.16634V9.16634H4.66683C4.20683 9.16634 3.8335 9.53967 3.8335 9.99967C3.8335 10.4597 4.20683 10.833 4.66683 10.833H9.66683V15.833C9.66683 16.293 10.0402 16.6663 10.5002 16.6663C10.9602 16.6663 11.3335 16.293 11.3335 15.833V10.833H16.3335C16.7935 10.833 17.1668 10.4597 17.1668 9.99967C17.1668 9.53967 16.7935 9.16634 16.3335 9.16634Z" fill="#4584FF"/>
</g>
</svg>
