<svg width="20" height="21" viewBox="0 0 20 21" fill="none" xmlns="http://www.w3.org/2000/svg">
<g id="print">
<path id="print_2" d="M15 6.33333H14.7917V4.66667C14.7917 4.50083 14.7259 4.34164 14.6084 4.22498L12.9417 2.55831C12.8242 2.44081 12.6658 2.375 12.5 2.375H6.66667C5.8625 2.375 5.20833 3.02917 5.20833 3.83333V6.33333H5C3.33333 6.33333 2.5 7.16667 2.5 8.83333V13.4167C2.5 14.1083 3.05833 14.6667 3.75 14.6667H5.20833V17.1667C5.20833 17.9667 5.86667 18.625 6.66667 18.625H13.3333C14.1333 18.625 14.7917 17.9667 14.7917 17.1667V14.6667H16.25C16.9417 14.6667 17.5 14.1083 17.5 13.4167V8.83333C17.5 7.16667 16.6667 6.33333 15 6.33333ZM6.45833 3.83333C6.45833 3.71833 6.55167 3.625 6.66667 3.625H12.2408L13.5417 4.92586V6.33333H6.45833V3.83333ZM13.5417 17.1667C13.5417 17.2833 13.45 17.375 13.3333 17.375H6.66667C6.55 17.375 6.45833 17.2833 6.45833 17.1667V14.6667V13.625H13.5417V14.6667V17.1667ZM14.1667 10.5C13.7067 10.5 13.3333 10.1267 13.3333 9.66667C13.3333 9.20667 13.7067 8.83333 14.1667 8.83333C14.6267 8.83333 15 9.20667 15 9.66667C15 10.1267 14.6267 10.5 14.1667 10.5Z" fill="white"/>
</g>
</svg>
