<svg width="20" height="21" viewBox="0 0 20 21" fill="none" xmlns="http://www.w3.org/2000/svg">
<g id="question-circle">
<path id="question-circle_2" d="M9.99999 19.4587C5.05999 19.4587 1.04166 15.4403 1.04166 10.5003C1.04166 5.56032 5.05999 1.54199 9.99999 1.54199C14.94 1.54199 18.9583 5.56032 18.9583 10.5003C18.9583 15.4403 14.94 19.4587 9.99999 19.4587ZM9.99999 2.79199C5.74916 2.79199 2.29166 6.24949 2.29166 10.5003C2.29166 14.7512 5.74916 18.2087 9.99999 18.2087C14.2508 18.2087 17.7083 14.7512 17.7083 10.5003C17.7083 6.24949 14.2508 2.79199 9.99999 2.79199ZM10.5924 11.637C10.6124 11.577 10.7258 11.3495 11.3358 10.9412C12.3192 10.282 12.7592 9.34028 12.5767 8.28861C12.3917 7.22611 11.5258 6.35368 10.4708 6.16785C9.69994 6.03118 8.91913 6.2386 8.32579 6.73527C7.72663 7.23777 7.38341 7.97523 7.38341 8.7594C7.38341 9.1044 7.66341 9.3844 8.00841 9.3844C8.35341 9.3844 8.63341 9.1044 8.63341 8.7594C8.63341 8.34607 8.81422 7.95708 9.12922 7.69291C9.44255 7.43041 9.84245 7.32291 10.2533 7.39791C10.7916 7.49291 11.2508 7.95703 11.3458 8.50203C11.3816 8.70787 11.4909 9.33281 10.64 9.90198C9.95088 10.3645 9.55919 10.7886 9.40835 11.2386C9.29835 11.5661 9.47494 11.9203 9.80244 12.0303C9.86827 12.0528 9.93497 12.0628 10.0008 12.0628C10.2608 12.0628 10.5041 11.8978 10.5924 11.637ZM10.85 14.2503C10.85 13.7903 10.4775 13.417 10.0167 13.417H10.0083C9.54833 13.417 9.17907 13.7903 9.17907 14.2503C9.17907 14.7103 9.55667 15.0837 10.0167 15.0837C10.4767 15.0837 10.85 14.7103 10.85 14.2503Z" fill="#091731"/>
</g>
</svg>
