<svg width="20" height="20" viewBox="0 0 20 20" fill="none" xmlns="http://www.w3.org/2000/svg">
<g id="sun">
<path id="sun_2" d="M13.75 10C13.75 12.0675 12.0675 13.75 10 13.75C7.9325 13.75 6.25 12.0675 6.25 10C6.25 7.9325 7.9325 6.25 10 6.25C12.0675 6.25 13.75 7.9325 13.75 10ZM10.625 4.16667V2.5C10.625 2.155 10.345 1.875 10 1.875C9.655 1.875 9.375 2.155 9.375 2.5V4.16667C9.375 4.51167 9.655 4.79167 10 4.79167C10.345 4.79167 10.625 4.51167 10.625 4.16667ZM10.625 17.5V15.8333C10.625 15.4883 10.345 15.2083 10 15.2083C9.655 15.2083 9.375 15.4883 9.375 15.8333V17.5C9.375 17.845 9.655 18.125 10 18.125C10.345 18.125 10.625 17.845 10.625 17.5ZM4.79167 10C4.79167 9.655 4.51167 9.375 4.16667 9.375H2.5C2.155 9.375 1.875 9.655 1.875 10C1.875 10.345 2.155 10.625 2.5 10.625H4.16667C4.51167 10.625 4.79167 10.345 4.79167 10ZM18.125 10C18.125 9.655 17.845 9.375 17.5 9.375H15.8333C15.4883 9.375 15.2083 9.655 15.2083 10C15.2083 10.345 15.4883 10.625 15.8333 10.625H17.5C17.845 10.625 18.125 10.345 18.125 10ZM6.31749 6.31749C6.56166 6.07333 6.56166 5.67749 6.31749 5.43332L5.13916 4.25499C4.89499 4.01082 4.49916 4.01082 4.25499 4.25499C4.01082 4.49916 4.01082 4.89499 4.25499 5.13916L5.43332 6.31749C5.55499 6.43916 5.71499 6.50083 5.87499 6.50083C6.03499 6.50083 6.19499 6.43916 6.31749 6.31749ZM15.745 15.745C15.9892 15.5008 15.9892 15.105 15.745 14.8608L14.5667 13.6825C14.3225 13.4383 13.9267 13.4383 13.6825 13.6825C13.4383 13.9267 13.4383 14.3225 13.6825 14.5667L14.8608 15.745C14.9825 15.8667 15.1425 15.9283 15.3025 15.9283C15.4625 15.9283 15.6233 15.8675 15.745 15.745ZM5.13916 15.745L6.31749 14.5667C6.56166 14.3225 6.56166 13.9267 6.31749 13.6825C6.07333 13.4383 5.67749 13.4383 5.43332 13.6825L4.25499 14.8608C4.01082 15.105 4.01082 15.5008 4.25499 15.745C4.37666 15.8667 4.53666 15.9283 4.69666 15.9283C4.85666 15.9283 5.01666 15.8675 5.13916 15.745ZM14.5667 6.31749L15.745 5.13916C15.9892 4.89499 15.9892 4.49916 15.745 4.25499C15.5008 4.01082 15.105 4.01082 14.8608 4.25499L13.6825 5.43332C13.4383 5.67749 13.4383 6.07333 13.6825 6.31749C13.8042 6.43916 13.9642 6.50083 14.1242 6.50083C14.2842 6.50083 14.4442 6.43916 14.5667 6.31749Z" fill="#4584FF"/>
</g>
</svg>
