<svg width="24" height="24" viewBox="0 0 24 24" fill="none" xmlns="http://www.w3.org/2000/svg">
<g id="triangle-exclamation">
<path id="triangle-exclamation_2" d="M21.6069 17.1517L14.9999 4.7955C13.7199 2.4015 10.2809 2.4015 8.99993 4.7955L2.393 17.1517C1.219 19.3477 2.81304 21.9996 5.30804 21.9996H18.6918C21.1858 21.9996 22.7809 19.3467 21.6069 17.1517ZM11.2499 9.9996C11.2499 9.5856 11.5859 9.2496 11.9999 9.2496C12.4139 9.2496 12.7499 9.5856 12.7499 9.9996V13.9996C12.7499 14.4136 12.4139 14.7496 11.9999 14.7496C11.5859 14.7496 11.2499 14.4136 11.2499 13.9996V9.9996ZM12.02 17.9996C11.468 17.9996 11.0148 17.5516 11.0148 16.9996C11.0148 16.4476 11.4579 15.9996 12.0099 15.9996H12.02C12.573 15.9996 13.02 16.4476 13.02 16.9996C13.02 17.5516 12.572 17.9996 12.02 17.9996Z" fill="#B8B8B8"/>
</g>
</svg>
